<svg xmlns="http://www.w3.org/2000/svg" viewBox="0 0 256 256" role="img" aria-labelledby="title desc">
  <title id="title">BudgetHub Family logo</title>
  <desc id="desc">A modern home, family and growth chart mark for BudgetHub Family.</desc>
  <defs>
    <linearGradient id="bhf-g" x1="38" y1="28" x2="218" y2="224" gradientUnits="userSpaceOnUse">
      <stop stop-color="#246BFE"/>
      <stop offset="1" stop-color="#11A683"/>
    </linearGradient>
  </defs>
  <rect width="256" height="256" rx="56" fill="url(#bhf-g)"/>
  <path d="M58 121 128 67l70 54v67a16 16 0 0 1-16 16H74a16 16 0 0 1-16-16v-67Z" fill="#fff"/>
  <path d="M86 122a13 13 0 1 0 0-26 13 13 0 0 0 0 26Zm42 0a13 13 0 1 0 0-26 13 13 0 0 0 0 26Zm42 0a13 13 0 1 0 0-26 13 13 0 0 0 0 26Z" fill="#162033" opacity=".92"/>
  <path d="M69 161c5-18 27-23 41-11 5-11 30-11 36 0 14-12 36-7 41 11v13H69v-13Z" fill="#162033" opacity=".92"/>
  <path d="M94 189h69" stroke="#11A683" stroke-width="12" stroke-linecap="round"/>
  <path d="M98 188v-27m31 27v-45m31 45v-65" stroke="#246BFE" stroke-width="12" stroke-linecap="round"/>
</svg>
